<svg width="24" height="24" viewBox="0 0 24 24" fill="none" xmlns="http://www.w3.org/2000/svg">
<path fill-rule="evenodd" clip-rule="evenodd" d="M17 2H7C4.23858 2 2 4.23858 2 7V17C2 19.7614 4.23858 22 7 22H17C19.7614 22 22 19.7614 22 17V7C22 4.23858 19.7614 2 17 2ZM16.0024 11.3696C16.1258 12.2018 15.9837 13.0518 15.5962 13.7986C15.2087 14.5454 14.5956 15.151 13.844 15.5292C13.0925 15.9075 12.2409 16.0391 11.4102 15.9055C10.5795 15.7718 9.81217 15.3796 9.21725 14.7847C8.62233 14.1898 8.23014 13.4224 8.09648 12.5918C7.96281 11.7611 8.09448 10.9094 8.47274 10.1579C8.851 9.40641 9.4566 8.79329 10.2034 8.40579C10.9502 8.01829 11.8002 7.87614 12.6324 7.99955C13.4813 8.12544 14.2673 8.52101 14.8741 9.12786C15.4809 9.7347 15.8765 10.5206 16.0024 11.3696ZM17.9999 7.33335C18.7363 7.33335 19.3332 6.7364 19.3332 6.00002C19.3332 5.26364 18.7363 4.66669 17.9999 4.66669C17.2635 4.66669 16.6665 5.26364 16.6665 6.00002C16.6665 6.7364 17.2635 7.33335 17.9999 7.33335Z" fill="#FDB248"/>
</svg>
