<svg width="25" height="26" viewBox="0 0 25 26" fill="none" xmlns="http://www.w3.org/2000/svg">
<path fill-rule="evenodd" clip-rule="evenodd" d="M12.4263 24.8731C12.4064 24.8619 12.3783 24.8459 12.3424 24.8252C12.2709 24.7837 12.1685 24.7232 12.0399 24.644C11.7828 24.4856 11.4197 24.2521 10.9861 23.9458C10.1203 23.3341 8.96503 22.4266 7.80726 21.2413C5.50294 18.882 3.1095 15.3372 3.1095 10.7785C3.1095 5.37797 7.48747 1 12.888 1C18.2885 1 22.6665 5.37797 22.6665 10.7785C22.6665 15.3372 20.273 18.882 17.9687 21.2413C16.8109 22.4266 15.6557 23.3341 14.7899 23.9458C14.3562 24.2521 13.9932 24.4856 13.736 24.644C13.6074 24.7232 13.5051 24.7837 13.4335 24.8252C13.3977 24.8459 13.3696 24.8619 13.3496 24.8731L13.3157 24.8921C13.0513 25.0355 12.7236 25.0366 12.4594 24.8916L12.4263 24.8731ZM15.223 6.3541L12.9084 4.03944L10.5937 6.3541H8.46309V8.48473L6.14856 10.7993L8.46309 13.1138V15.2383H10.5876L12.9084 17.5591L15.2292 15.2383H17.3473V13.1202L19.6682 10.7993L17.3473 8.47837V6.3541H15.223Z" fill="#FDB248"/>
</svg>
