<svg width="24" height="24" viewBox="0 0 24 24" fill="none" xmlns="http://www.w3.org/2000/svg">
<path d="M22.4981 17.4712V20.7831C22.4993 21.0906 22.4391 21.3949 22.3213 21.6766C22.2035 21.9583 22.0307 22.2112 21.814 22.419C21.5973 22.6269 21.3415 22.7851 21.0629 22.8836C20.7844 22.9821 20.4892 23.0187 20.1963 22.991C16.9472 22.6219 13.8262 21.4611 11.0841 19.6019C8.53295 17.9069 6.37001 15.6455 4.74888 12.9781C2.96443 10.0981 1.85393 6.81909 1.50735 3.40674C1.48096 3.10146 1.51566 2.79378 1.60924 2.50329C1.70282 2.2128 1.85322 1.94586 2.05088 1.71947C2.24853 1.49308 2.48911 1.31221 2.75728 1.18836C3.02546 1.06451 3.31537 1.0004 3.60854 1.00011H6.77616C7.28858 0.994834 7.78536 1.18456 8.17389 1.53391C8.56242 1.88326 8.81619 2.36841 8.88791 2.89892C9.02161 3.9588 9.26956 4.99946 9.62702 6.00106C9.76908 6.39619 9.79983 6.82562 9.71562 7.23847C9.6314 7.65131 9.43576 8.03026 9.15188 8.33042L7.81092 9.73245C9.31401 12.4963 11.5027 14.7847 14.1462 16.3562L15.4871 14.9542C15.7742 14.6574 16.1366 14.4528 16.5315 14.3648C16.9264 14.2767 17.3371 14.3089 17.715 14.4574C18.673 14.8312 19.6683 15.0904 20.682 15.2302C21.1949 15.3058 21.6634 15.5759 21.9982 15.9891C22.3331 16.4024 22.511 16.9298 22.4981 17.4712Z" fill="#FDB248"/>
</svg>
