<svg width="23" height="24" viewBox="0 0 23 24" fill="none" xmlns="http://www.w3.org/2000/svg">
<path d="M20.7917 5.62246C19.5886 5.36615 18.4991 4.7338 17.6822 3.81761C16.8652 2.90141 16.3634 1.74926 16.25 0.529131V0H12.0998V16.4043C12.0972 17.1305 11.8662 17.8377 11.4393 18.4264C11.0124 19.0152 10.4109 19.4559 9.71955 19.6867C9.02817 19.9174 8.28155 19.9267 7.58464 19.713C6.88772 19.4994 6.27553 19.0736 5.83409 18.4956C5.3858 17.9079 5.13712 17.1932 5.12412 16.4553C5.11111 15.7173 5.33446 14.9944 5.76177 14.3914C6.18908 13.7884 6.79813 13.3366 7.50062 13.1016C8.2031 12.8666 8.96249 12.8605 9.66866 13.0843V8.88484C8.09394 8.66803 6.49055 8.94686 5.08278 9.68233C3.675 10.4178 2.53325 11.5731 1.81722 12.9867C1.10119 14.4003 0.846704 16.0015 1.08935 17.5662C1.33199 19.1309 2.05963 20.581 3.17049 21.7136C4.22986 22.7931 5.58819 23.5338 7.07211 23.841C8.55603 24.1483 10.0982 24.0081 11.5018 23.4385C12.9054 22.8689 14.1067 21.8956 14.9524 20.6429C15.7981 19.3902 16.2499 17.915 16.25 16.4055V8.02335C17.9272 9.2176 19.9382 9.85796 22 9.85431V5.74725C21.594 5.74775 21.189 5.70592 20.7917 5.62246Z" fill="#FDB248"/>
</svg>
